<svg width="375" height="324" viewBox="0 0 375 324" fill="none" xmlns="http://www.w3.org/2000/svg">
<mask id="mask0" style="mask-type:alpha" maskUnits="userSpaceOnUse" x="0" y="0" width="375" height="324">
<rect width="375" height="324" fill="#C4C4C4"/>
</mask>
<g mask="url(#mask0)">
<path d="M392.671 62.4058C379.614 48.4705 369.508 31.8353 353.903 20.463C329.391 2.56283 294.114 0.817263 265.454 12.0626C236.793 23.3073 214.466 45.9742 199.75 71.6404C192.009 85.1443 185.928 99.8745 174.585 110.909C164.997 120.232 152.393 126.181 140.444 132.659C121.178 143.076 102.624 155.663 90.1562 172.934C77.6895 190.205 72.1154 212.888 80.085 232.352C85.4593 245.485 96.2844 255.935 107.374 265.396C120.425 276.52 134.452 286.936 150.64 293.564C170.906 301.81 193.404 303.583 215.466 304.422C254.578 305.904 293.753 304.796 332.7 301.109C364.592 298.093 397.45 292.945 424.133 276.282C461.512 252.947 480.783 210.193 485.122 168.267C486.888 151.499 486.441 134.073 479.542 118.515C463.042 81.3002 418.523 90.0043 392.67 62.4058H392.671Z" fill="#EFF1F7"/>
<path d="M140.694 130.959C140.694 130.959 130.36 129.124 127.466 136.355C124.571 143.587 127.466 168.56 127.466 168.56L166.021 196.116L140.694 130.959Z" fill="#3F3D56"/>
<path d="M189.18 241.391L173.894 245.753C171.673 246.382 169.343 245.161 168.682 243.023C168.03 240.883 169.296 238.637 171.514 238L186.78 233.633C188.999 233.005 191.329 234.223 191.992 236.359C192.65 238.497 191.394 240.745 189.18 241.391Z" fill="#2BD0D0"/>
<path d="M188.432 257.746C192.213 257.746 195.279 254.68 195.279 250.898C195.279 247.116 192.213 244.051 188.432 244.051C184.65 244.051 181.584 247.116 181.584 250.898C181.584 254.68 184.65 257.746 188.432 257.746Z" fill="#25233A"/>
<path d="M187.498 255.879C189.389 255.879 190.922 254.346 190.922 252.455C190.922 250.564 189.389 249.031 187.498 249.031C185.607 249.031 184.074 250.564 184.074 252.455C184.074 254.346 185.607 255.879 187.498 255.879Z" fill="#3F3D56"/>
<path d="M160.418 250.899C164.2 250.899 167.266 247.833 167.266 244.051C167.266 240.269 164.2 237.203 160.418 237.203C156.636 237.203 153.57 240.269 153.57 244.051C153.57 247.833 156.636 250.899 160.418 250.899Z" fill="#25233A"/>
<path d="M162.908 244.362C162.908 245.27 162.547 246.141 161.905 246.783C161.263 247.425 160.392 247.786 159.484 247.786C158.576 247.786 157.705 247.425 157.063 246.783C156.421 246.141 156.06 245.27 156.06 244.362C156.06 243.454 156.421 242.583 157.063 241.941C157.705 241.299 158.576 240.938 159.484 240.938C160.392 240.938 161.263 241.299 161.905 241.941C162.547 242.583 162.908 243.454 162.908 244.362Z" fill="url(#paint0_linear)"/>
<path d="M158.55 260.236C162.332 260.236 165.398 257.171 165.398 253.389C165.398 249.607 162.332 246.541 158.55 246.541C154.768 246.541 151.702 249.607 151.702 253.389C151.702 257.171 154.768 260.236 158.55 260.236Z" fill="#25233A"/>
<path d="M164.153 253.7C164.153 254.608 163.792 255.479 163.15 256.121C162.508 256.763 161.637 257.124 160.729 257.124C159.821 257.124 158.95 256.763 158.308 256.121C157.666 255.479 157.305 254.608 157.305 253.7C157.305 252.792 157.666 251.921 158.308 251.279C158.95 250.637 159.821 250.276 160.729 250.276C161.637 250.276 162.508 250.637 163.15 251.279C163.792 251.921 164.153 252.792 164.153 253.7Z" fill="#3F3D56"/>
<path d="M189.729 248.33L158.113 242.076C155.888 241.63 154.45 239.505 154.896 237.322C155.352 235.144 157.517 233.734 159.742 234.169L191.359 240.411C193.584 240.857 195.022 242.982 194.576 245.165C194.126 247.348 191.959 248.764 189.729 248.33Z" fill="#2BD0D0"/>
<path d="M170.378 197.984H179.094V234.713C179.094 237.119 177.143 239.07 174.738 239.07C173.582 239.07 172.475 238.611 171.658 237.793C170.841 236.976 170.382 235.868 170.383 234.713V197.984H170.378Z" fill="#2BD0D0"/>
<path d="M173.607 245.736L158.332 250.11C156.111 250.741 153.779 249.519 153.119 247.378C152.467 245.237 153.733 242.989 155.95 242.352L171.225 237.991C173.444 237.362 175.772 238.581 176.434 240.718C177.081 242.857 175.818 245.097 173.607 245.736V245.736Z" fill="#2BD0D0"/>
<path d="M176.604 245.458L174.658 245.801C174.067 245.903 173.467 245.939 172.868 245.908L173.681 245.766C174.219 245.676 174.743 245.518 175.241 245.296L176.604 245.458Z" fill="url(#paint1_linear)"/>
<path d="M192.167 237.04C192.168 238.001 191.849 238.935 191.258 239.693L178.471 236.985C178.795 236.522 179.027 236.002 179.155 235.452L187.032 233.01C187.539 232.857 188.073 232.81 188.599 232.872C189.125 232.934 189.633 233.104 190.091 233.371C191.024 233.91 191.715 234.817 192.01 235.891C192.112 236.264 192.165 236.651 192.167 237.04Z" fill="url(#paint2_linear)"/>
<path opacity="0.31" d="M169.893 236.022C169.802 235.702 169.756 235.371 169.756 235.038V198.606H173.455V237.869C173.419 238.062 173.43 238.259 173.491 238.448C172.921 238.25 172.323 238.143 171.72 238.13C171.29 238.105 170.858 238.105 170.427 238.13L170.692 238.068C170.855 238.043 170.107 236.766 169.893 236.022H169.893Z" fill="url(#paint3_linear)"/>
<path opacity="0.31" d="M192.969 247.661C192.365 247.987 191.686 248.158 190.996 248.157C190.718 248.156 190.441 248.129 190.168 248.076L176.219 245.333L175.057 245.107C174.658 245.405 174.208 245.628 173.729 245.764L173.038 245.961L158.704 250.111C156.516 250.738 154.221 249.524 153.57 247.396C154.813 248.519 156.701 248.624 158.067 247.645C159.816 246.465 166.783 244.693 170.729 243.75C172.594 243.315 174.021 241.851 174.37 240.015C174.38 239.907 174.396 239.799 174.42 239.693C175.077 240.386 176.285 241.163 178.469 241.824C183.848 243.436 192.58 244.503 192.58 244.503C192.58 244.503 194.156 246.01 192.969 247.661Z" fill="url(#paint4_linear)"/>
<path d="M194.034 246.541C193.701 247.03 193.278 247.452 192.789 247.786C193.209 247.376 193.624 246.961 194.034 246.541Z" fill="url(#paint5_linear)"/>
<path d="M170.565 235.683C170.739 236.415 171.104 237.088 171.623 237.632C171.493 237.656 171.359 237.689 171.224 237.726L157.983 241.561C155.946 241.054 154.605 239.155 154.842 237.112C155.08 235.07 156.823 233.513 158.924 233.468C159.206 233.468 159.487 233.496 159.764 233.55L170.565 235.683Z" fill="url(#paint6_linear)"/>
<path d="M190.922 60.6584C190.922 60.6584 190.75 47.7067 180.292 48.8241C169.834 49.9403 170.636 45.6523 166.169 46.123C161.702 46.5942 156.513 50.97 158.003 56.3748C159.494 61.7796 154.061 62.9879 150.493 67.0885C146.924 71.1891 151.333 74.5439 157.344 78.5529C163.356 82.562 156.971 81.5243 160.535 87.8629C164.099 94.2008 176.165 86.1042 176.165 86.1042L190.922 60.6584Z" fill="#503164"/>
<path d="M106.049 275.551L113.351 275.8V217.441C113.351 217.441 113.718 202.35 127.951 200.836C142.182 199.323 271.254 180.625 271.254 180.625C271.254 180.625 276.37 180.084 279.316 189.901C282.263 199.719 285.131 238.326 285.131 238.326L324.748 243.665C324.748 243.665 325.794 175.468 311.487 171.704C297.181 167.941 110.086 187.118 110.086 187.118C110.086 187.118 96.2097 259.551 106.049 275.551Z" fill="#2BD0D0"/>
<path opacity="0.197" d="M106.049 275.551L113.351 275.8V217.441C113.351 217.441 113.718 202.35 127.951 200.836C142.182 199.323 271.254 180.625 271.254 180.625C271.254 180.625 276.37 180.084 279.316 189.901C282.263 199.719 285.131 238.326 285.131 238.326L324.748 243.665C324.748 243.665 325.794 175.468 311.487 171.704C297.181 167.941 110.086 187.118 110.086 187.118C110.086 187.118 96.2097 259.551 106.049 275.551Z" fill="url(#paint7_linear)"/>
<path d="M68.2836 194.114C68.2836 194.114 71.8594 174.345 97.0096 169.164L274.544 148.843C274.544 148.843 291.972 148.121 299.946 152.943C307.919 157.766 319.299 161.763 323.965 183.586C328.63 205.409 329.745 242.69 329.745 242.69L325.332 243.375C325.332 243.375 318.89 175.868 312.064 171.594C305.24 167.32 120.698 193.541 120.698 193.541C120.698 193.541 107.898 196.086 106.783 215.038C105.669 233.99 106.783 275.177 106.783 275.177L68.2836 259.65V194.114Z" fill="#2BD0D0"/>
<path opacity="0.19" d="M250.949 156.8C241.759 155.617 232.495 154.76 223.235 155.106C216.275 155.376 209.361 156.33 202.46 157.281L141.592 165.687C140.559 165.83 139.382 166.062 138.865 166.959C137.874 168.673 140.204 170.361 142.091 171.013C162.33 178.02 183.952 185.117 204.785 180.121C214.309 177.837 223.156 173.094 232.817 171.446C242.478 169.798 252.394 171.315 262.034 169.761C271.096 168.301 279.725 164.153 288.91 164.113C291.727 164.113 294.627 164.472 297.299 163.59C299.971 162.709 302.334 160.018 301.594 157.334C292.97 157.036 283.289 155.462 274.83 157.171C266.458 158.859 259.333 156.8 250.949 156.8Z" fill="url(#paint8_linear)"/>
<path d="M195.902 166.471L196.257 167.787C196.257 167.787 206.766 174.12 206.7 174.324C206.634 174.528 250.292 164.214 250.292 164.214L251.307 161.254L195.902 166.471Z" fill="#2BD0D0"/>
<path d="M195.902 166.471L196.257 167.787C196.257 167.787 206.766 174.12 206.7 174.324C206.634 174.528 250.292 164.214 250.292 164.214L251.307 161.254L195.902 166.471Z" fill="url(#paint9_linear)"/>
<path d="M196.524 166.461L235.188 158.142L251.307 161.288L207.383 171.838L196.524 166.461Z" fill="#2BD0D0"/>
<path d="M196.524 166.461L235.188 158.142L251.307 161.288L207.383 171.838L196.524 166.461Z" fill="url(#paint10_linear)"/>
<path d="M183.969 173.384L192.969 173.703C192.969 173.703 195.255 173.844 195.845 172.011C196.437 170.178 192.179 166.309 191.723 166.236C191.267 166.163 179.422 169.486 181.129 172.807L183.969 173.384Z" fill="#2BD0D0"/>
<path d="M183.969 173.384L192.969 173.703C192.969 173.703 195.255 173.844 195.845 172.011C196.437 170.178 192.179 166.309 191.723 166.236C191.267 166.163 179.422 169.486 181.129 172.807L183.969 173.384Z" fill="url(#paint11_linear)"/>
<path d="M78.8667 264.006L74.4729 277.501C61.7279 282.077 50.8915 277.501 50.8915 277.501L47.7403 263.349C47.7403 263.349 63.6365 268.678 78.8667 264.006Z" fill="#2BD0D0"/>
<path d="M78.8667 264.006L74.4729 277.501C61.7279 282.077 50.8915 277.501 50.8915 277.501L47.7403 263.349C47.7403 263.349 63.6365 268.678 78.8667 264.006Z" fill="url(#paint12_linear)"/>
<path d="M83.8469 251.521L82.425 262.069L78.8231 263.941C63.479 268.56 47.4383 263.295 47.4383 263.295L44.6724 261.251L43.3826 251.521H83.8469Z" fill="#2BD0D0"/>
<path d="M83.8469 251.521L82.425 262.069L78.8231 263.941C63.479 268.56 47.4383 263.295 47.4383 263.295L44.6724 261.251L43.3826 251.521H83.8469Z" fill="url(#paint13_linear)"/>
<path d="M63.6147 254.634C74.7886 254.634 83.8469 252.961 83.8469 250.898C83.8469 248.836 74.7886 247.163 63.6147 247.163C52.4408 247.163 43.3826 248.836 43.3826 250.898C43.3826 252.961 52.4408 254.634 63.6147 254.634Z" fill="#2BD0D0"/>
<path d="M63.6147 254.634C74.7886 254.634 83.8469 252.961 83.8469 250.898C83.8469 248.836 74.7886 247.163 63.6147 247.163C52.4408 247.163 43.3826 248.836 43.3826 250.898C43.3826 252.961 52.4408 254.634 63.6147 254.634Z" fill="url(#paint14_linear)"/>
<path d="M54.3646 169.988C52.3837 169.045 50.254 168.334 48.5402 166.957C45.0871 164.155 44.2118 159.332 43.1305 155.005C42.0497 150.678 39.9574 145.921 35.695 144.68C34.1001 144.221 32.2294 144.403 31.0167 145.545C29.7386 146.748 29.479 148.726 29.8289 150.472C30.1781 152.217 31.0291 153.781 31.6871 155.436C33.2232 159.281 33.6904 163.471 33.0393 167.561C32.5008 170.915 31.214 174.316 32.0401 177.605C33.4421 183.185 40.4256 186.457 40.6186 192.207C40.7505 196.087 37.5775 199.678 38.2965 203.497C38.8269 206.322 41.4123 208.527 41.5523 211.398C41.708 214.654 38.6501 217.408 38.7983 220.664C38.9458 223.92 42.1767 226.096 44.2859 228.657C46.0552 230.811 47.106 233.465 47.2908 236.247C47.4016 237.985 47.1794 239.784 47.7428 241.431C48.1536 242.634 48.9754 243.657 49.6128 244.74C50.3163 245.911 50.8461 247.177 51.6927 248.261C52.7522 249.609 54.1938 250.607 55.8291 251.124C57.4644 251.64 59.2175 251.651 60.8594 251.156C61.5131 246.83 60.9416 242.416 61.1228 238.043C61.4801 229.571 64.6656 221.033 62.6268 212.808C61.8791 209.793 60.4405 206.93 60.1852 203.836C59.9593 201.072 60.6907 198.334 61.2006 195.608C62.2526 189.978 62.2365 184.157 61.8044 178.465C61.4639 173.948 58.3071 171.867 54.3652 169.988H54.3646Z" fill="#2BD0D0"/>
<path d="M66.8842 192.236C66.8512 196.01 67.7122 199.912 66.5032 203.494C65.5881 206.21 63.5761 208.433 62.5371 211.103C60.1404 217.266 63.3651 224.176 62.707 230.757C62.4331 233.467 61.5018 236.071 60.9142 238.733C60.1841 242.103 60.0051 245.568 60.3844 248.995C60.3459 249.62 60.5341 250.237 60.9144 250.734C61.2947 251.23 61.8415 251.573 62.4543 251.698C64.4829 252.471 66.5842 253.037 68.7263 253.389C68.0021 249.399 68.765 245.281 70.8709 241.816C74.1541 236.443 80.5337 232.823 81.7215 226.652C82.5246 222.473 80.6539 218.233 80.7865 213.98C80.8821 211.15 81.8573 208.419 83.5767 206.169C85.1205 204.16 87.2116 202.606 88.6484 200.522C92.1009 195.501 91.0246 188.789 89.998 182.784C88.9709 176.778 88.3751 169.868 92.4321 165.318C93.7158 163.88 95.3879 162.8 96.5514 161.263C99.143 157.837 98.4887 152.558 95.4744 149.496C92.4614 146.433 87.6088 145.587 83.5107 146.934C81.7824 147.442 80.2564 148.478 79.1468 149.897C77.0768 152.832 77.9048 156.841 78.7826 160.329C79.5483 163.359 80.1652 166.855 79.1181 169.909C78.3356 172.182 76.3522 173.414 74.667 174.997C72.2796 177.201 70.3602 179.863 69.0231 182.825C67.686 185.787 66.9586 188.987 66.8842 192.236Z" fill="#2BD0D0"/>
<path d="M62.7196 225.7C62.1356 229.804 61.2927 233.941 61.1197 238.058V238.472C61.1107 238.574 61.0875 238.674 61.0506 238.77C60.3211 242.143 60.1391 245.611 60.5115 249.042C60.5339 249.598 60.6739 250.143 60.9223 250.64C60.9024 250.813 60.8775 250.983 60.8532 251.156C59.2108 251.652 57.4572 251.64 55.8213 251.124C54.1855 250.607 52.7434 249.609 51.6834 248.26C50.8617 247.176 50.3057 245.91 49.6029 244.74C48.9449 243.652 48.1431 242.629 47.7322 241.43C47.1688 239.775 47.3904 237.984 47.2796 236.246C47.095 233.464 46.044 230.809 44.2741 228.654C42.1643 226.109 38.9284 223.975 38.7846 220.665C38.6408 217.355 41.6956 214.654 41.5393 211.397C41.3999 208.526 38.8133 206.321 38.2835 203.495C37.5632 199.676 40.7499 196.086 40.6061 192.205C40.4132 186.454 33.4271 183.181 32.0246 177.6C31.2028 174.311 32.4853 170.91 33.0237 167.555C33.6781 163.47 33.2165 159.285 31.6878 155.441C31.0298 153.786 30.1788 152.227 29.8289 150.476C29.4797 148.727 29.7387 146.753 31.0173 145.544C32.2512 144.403 34.1013 144.221 35.6969 144.68C39.9649 145.921 42.0492 150.696 43.1348 155.023C44.2205 159.351 45.0921 164.17 48.5459 166.975C50.2528 168.362 52.3906 169.065 54.3727 170.008C58.3195 171.887 61.4776 173.968 61.815 178.444C62.2259 184.137 62.2633 189.958 61.2112 195.589C60.7007 198.315 59.9773 201.055 60.1952 203.818C60.4131 206.582 61.6096 209.197 62.3909 211.877C62.4774 212.179 62.5633 212.485 62.6374 212.792C63.6739 217.049 63.3409 221.356 62.7196 225.7Z" fill="#30C59B"/>
<path d="M60.6378 250.276C60.4497 249.78 60.3441 249.257 60.3253 248.727C60.0576 245.39 60.1909 242.016 60.7219 238.737C60.7362 238.641 60.7543 238.544 60.7717 238.448C60.6652 242.399 61.0045 246.381 60.6378 250.276Z" fill="url(#paint15_linear)"/>
<path d="M96.5421 161.263C95.3773 162.801 93.7021 163.879 92.4166 165.318C88.3533 169.864 88.9503 176.778 89.9787 182.784C91.0065 188.789 92.0848 195.501 88.6266 200.523C87.1886 202.59 85.0944 204.16 83.5474 206.169C81.8255 208.418 80.8484 211.149 80.7523 213.98C80.6203 218.233 82.4941 222.473 81.6898 226.652C80.5001 232.823 74.1105 236.452 70.8223 241.816C68.7215 245.284 67.9632 249.4 68.6908 253.389C66.5509 253.037 64.4519 252.471 62.4257 251.698C61.8719 251.534 61.3695 251.231 60.9665 250.818C60.9092 250.75 60.8578 250.679 60.8127 250.603C60.5558 250.111 60.4074 249.57 60.3775 249.015C60.0046 245.588 60.1908 242.122 60.9291 238.754C60.9496 238.654 60.9745 238.555 60.9994 238.456C61.5884 235.897 62.4593 233.389 62.7245 230.777C62.8655 229.083 62.8321 227.38 62.6249 225.693C63.2511 221.353 63.5867 217.051 62.5296 212.827C62.4549 212.522 62.3678 212.215 62.2806 211.913C62.3597 211.649 62.4506 211.384 62.5545 211.124C63.5954 208.454 65.6105 206.231 66.5262 203.515C67.7333 199.932 66.8749 196.03 66.9079 192.256C66.962 185.739 69.9103 179.445 74.6453 174.997C76.3323 173.414 78.3188 172.183 79.1026 169.91C80.1515 166.855 79.5172 163.359 78.7664 160.329C77.8836 156.841 77.0457 152.832 79.1318 149.897C80.1683 148.442 81.8025 147.496 83.502 146.934C87.5901 145.586 92.4707 146.433 95.485 149.496C98.4993 152.559 99.138 157.857 96.5421 161.263Z" fill="#30C59B"/>
<path d="M170.112 95.9799C170.112 95.9799 152.796 98.6568 144.786 117.754C136.775 136.851 140.941 160.511 141.081 162.593C141.221 164.675 165.626 173.705 172.603 173.705C179.58 173.705 181.033 166.715 181.033 166.715L168.705 161.465L206.162 157.139H212.888L209.184 163.384C209.184 163.384 216.494 164.15 221.38 164.325C226.266 164.5 229.584 154.837 230.131 150.032C230.679 145.228 208.55 103.057 205.244 100.56C201.939 98.0617 192.97 91.9584 170.112 95.9799Z" fill="#2BD0D0"/>
<path d="M190.543 60.2655C190.543 60.2655 193.676 62.0272 193.394 67.7265C193.112 73.4257 191.346 82.0023 189.564 84.2235C187.781 86.4459 181.546 87.3162 181.546 87.3162C181.546 87.3162 184.947 95.3947 187.478 97.4796C190.01 99.5644 184.935 107.245 179.999 104.725C175.063 102.205 169.341 95.8753 169.341 95.8753C169.341 95.8753 173.457 88.2525 172.065 84.2403C170.674 80.2281 165.359 66.1471 169.341 62.3011C173.323 58.4539 181.907 52.9414 190.543 60.2655Z" fill="url(#paint16_linear)"/>
<path opacity="0.25" d="M163.116 123.28L160.418 156.931L168.659 161.255L175.359 160.085L166.999 149.811L163.116 123.28ZM206.485 121.413C206.485 121.413 217.634 147.607 212.692 156.897L208.884 156.175L206.485 121.413Z" fill="white"/>
<path d="M176.306 165.64C176.306 165.64 172.094 169.235 173.974 172.032C175.854 174.828 178.098 174.748 179.97 173.498C181.841 172.247 185.517 169.28 189.896 170.642C194.276 172.004 195.34 172.87 195.34 172.87C195.34 172.87 197.646 171.429 197.048 169.982C196.449 168.536 191.869 163.851 190.541 163.244C189.214 162.637 183.704 164.502 183.704 164.502C183.704 164.502 179.656 163.407 176.306 165.641V165.64Z" fill="url(#paint17_linear)"/>
<path d="M213.452 157.892C213.452 157.892 209.477 158.364 208.473 160.978C207.468 163.591 207.107 163.91 207.107 163.91C207.107 163.91 209.352 164.339 210.286 163.123C211.22 161.906 212.19 162.417 212.19 162.417L211.912 163.978C211.912 163.978 218.012 164.898 220.767 163.91C223.522 162.92 224.704 161.76 224.704 161.76L225.783 159.121C225.783 159.121 223.181 157.234 221.219 156.942C219.257 156.649 213.452 157.892 213.452 157.892Z" fill="url(#paint18_linear)"/>
<path d="M234.432 185.533C234.432 185.533 248.087 195.921 246.873 209.973C245.659 224.025 243.876 244.889 243.876 244.889C243.876 244.889 238.37 247.206 234.721 244.889C231.072 242.572 228.862 210.868 227.054 207.84C225.247 204.812 214.37 191.163 202.75 189.987L234.432 185.533Z" fill="#25233A"/>
<path d="M166.021 195.53C166.021 195.53 172.522 201.69 184.112 203.624C195.703 205.558 201.106 207.172 204.648 217.073C208.19 226.975 211.588 248.285 212.7 250.667C213.812 253.049 218.541 251.834 218.541 251.834C218.541 251.834 221.215 248.786 221.215 231.842C221.215 208.219 222.868 203.377 216.912 197.443C210.955 191.509 205.537 189.891 205.537 189.891L166.021 195.53Z" fill="#3F3D56"/>
<path d="M212.71 251.521L213.843 260.359H215.965C215.965 260.359 229.628 261.098 230.056 260.779C230.485 260.46 229.398 253.78 224.222 253.969C219.045 254.158 218.706 252.709 218.706 252.709L212.71 251.521ZM235.744 245.393L237.934 254.011L261.862 250.767C261.862 250.767 262.704 245.106 255.124 245.667C253.123 245.813 251.633 247.202 249.228 247.214C246.823 247.227 244.52 246.254 243.307 244.673L235.744 245.393Z" fill="#25233A"/>
<path d="M317.173 137.186L228.623 141.951C226.481 142.063 224.653 140.413 224.538 138.262V75.0177C224.54 72.4647 226.572 70.3811 229.113 70.327L317.3 68.4986C317.861 68.4873 318.418 68.5869 318.94 68.7917C319.462 68.9965 319.939 69.3025 320.342 69.692C321.159 70.4809 321.63 71.5614 321.653 72.6969V132.442C321.649 134.967 319.683 137.049 317.173 137.186Z" fill="#2BD0D0"/>
<path d="M322.153 137.186L233.598 141.951C231.457 142.061 229.632 140.409 229.518 138.257V75.0176C229.516 72.464 231.548 70.3785 234.089 70.3268L322.289 68.4985C324.64 68.4549 326.583 70.3306 326.633 72.6931V132.441C326.63 134.967 324.663 137.05 322.153 137.186Z" fill="#2BD0D0"/>
<path d="M322.153 137.186L233.598 141.951C231.457 142.061 229.632 140.409 229.518 138.257V75.0176C229.516 72.464 231.548 70.3785 234.089 70.3268L322.289 68.4985C324.64 68.4549 326.583 70.3306 326.633 72.6931V132.441C326.63 134.967 324.663 137.05 322.153 137.186Z" fill="url(#paint19_linear)"/>
<path d="M295.988 161.34L273.393 163.745C273.393 163.745 266.512 162.356 266.884 161.34C267.257 160.324 274.452 159.345 274.452 159.345V118.38C274.39 118.29 273.443 117.083 270.848 116.314C270.346 116.165 269.835 116.047 269.317 115.959C268.873 115.894 268.441 115.764 268.035 115.571C266.492 114.774 268.197 113.386 270.592 113.324C270.967 113.31 271.342 113.333 271.713 113.39H289.09C289.09 113.39 295.669 115.24 295.988 124.477C296.306 133.715 295.988 161.34 295.988 161.34Z" fill="#3A3054"/>
<path d="M277.453 161.427L273.296 163.745C273.296 163.745 266.518 162.356 266.884 161.34C267.252 160.324 274.352 159.345 274.352 159.345V118.377C274.266 118.282 273.227 117.195 270.801 116.311C269.899 115.989 268.972 115.74 268.03 115.567C266.51 114.77 268.189 113.382 270.549 113.32C272.558 113.597 276.515 115.827 276.773 117.101C277.029 118.373 277.453 161.427 277.453 161.427Z" fill="#51466B"/>
<path d="M193.412 247.163C192.863 247.786 192.609 248.016 192.932 247.504C193.101 247.405 193.261 247.291 193.412 247.163Z" fill="url(#paint20_linear)"/>
</g>
<defs>
<linearGradient id="paint0_linear" x1="156.06" y1="244.362" x2="162.908" y2="244.362" gradientUnits="userSpaceOnUse">
<stop stop-color="#183866"/>
<stop offset="1" stop-color="#1A7FC1"/>
</linearGradient>
<linearGradient id="paint1_linear" x1="172.863" y1="245.607" x2="176.604" y2="245.607" gradientUnits="userSpaceOnUse">
<stop/>
<stop offset="0.99" stop-opacity="0"/>
</linearGradient>
<linearGradient id="paint2_linear" x1="202.585" y1="194.087" x2="218.505" y2="201.533" gradientUnits="userSpaceOnUse">
<stop/>
<stop offset="0.99" stop-opacity="0"/>
</linearGradient>
<linearGradient id="paint3_linear" x1="171.957" y1="95.8152" x2="169.771" y2="95.2199" gradientUnits="userSpaceOnUse">
<stop/>
<stop offset="0.99" stop-opacity="0"/>
</linearGradient>
<linearGradient id="paint4_linear" x1="215.763" y1="232.997" x2="162.085" y2="215.462" gradientUnits="userSpaceOnUse">
<stop/>
<stop offset="0.99" stop-opacity="0"/>
</linearGradient>
<linearGradient id="paint5_linear" x1="222.186" y1="40.0495" x2="219.716" y2="39.2696" gradientUnits="userSpaceOnUse">
<stop/>
<stop offset="0.99" stop-opacity="0"/>
</linearGradient>
<linearGradient id="paint6_linear" x1="195.389" y1="198.988" x2="178.117" y2="203.58" gradientUnits="userSpaceOnUse">
<stop/>
<stop offset="0.99" stop-opacity="0"/>
</linearGradient>
<linearGradient id="paint7_linear" x1="339.989" y1="194.749" x2="23.4841" y2="179.513" gradientUnits="userSpaceOnUse">
<stop/>
<stop offset="1" stop-opacity="0"/>
</linearGradient>
<linearGradient id="paint8_linear" x1="161.739" y1="143.964" x2="324.84" y2="143.964" gradientUnits="userSpaceOnUse">
<stop stop-color="#183866"/>
<stop offset="1" stop-color="#1A7FC1"/>
</linearGradient>
<linearGradient id="paint9_linear" x1="218.278" y1="166.42" x2="220.244" y2="174.061" gradientUnits="userSpaceOnUse">
<stop/>
<stop offset="0.99" stop-opacity="0"/>
</linearGradient>
<linearGradient id="paint10_linear" x1="189.66" y1="164.294" x2="242.783" y2="181.293" gradientUnits="userSpaceOnUse">
<stop/>
<stop offset="0.99" stop-opacity="0"/>
</linearGradient>
<linearGradient id="paint11_linear" x1="188.984" y1="169.393" x2="188.593" y2="172.399" gradientUnits="userSpaceOnUse">
<stop/>
<stop offset="0.99" stop-opacity="0"/>
</linearGradient>
<linearGradient id="paint12_linear" x1="107.169" y1="209.41" x2="79.5671" y2="208.345" gradientUnits="userSpaceOnUse">
<stop/>
<stop offset="0.99" stop-opacity="0"/>
</linearGradient>
<linearGradient id="paint13_linear" x1="111.596" y1="233.444" x2="88.536" y2="232.656" gradientUnits="userSpaceOnUse">
<stop/>
<stop offset="0.99" stop-opacity="0"/>
</linearGradient>
<linearGradient id="paint14_linear" x1="66.4428" y1="250.422" x2="65.6013" y2="254.581" gradientUnits="userSpaceOnUse">
<stop/>
<stop offset="0.99" stop-opacity="0"/>
</linearGradient>
<linearGradient id="paint15_linear" x1="60.5526" y1="64.1536" x2="58.6177" y2="76.0665" gradientUnits="userSpaceOnUse">
<stop/>
<stop offset="0.99" stop-opacity="0"/>
</linearGradient>
<linearGradient id="paint16_linear" x1="167.878" y1="80.945" x2="193.411" y2="80.945" gradientUnits="userSpaceOnUse">
<stop stop-color="#ECC4D7"/>
<stop offset="0.42" stop-color="#EFD4D1"/>
<stop offset="1" stop-color="#F2EAC9"/>
</linearGradient>
<linearGradient id="paint17_linear" x1="196.918" y1="144.825" x2="220.574" y2="144.825" gradientUnits="userSpaceOnUse">
<stop stop-color="#ECC4D7"/>
<stop offset="0.42" stop-color="#EFD4D1"/>
<stop offset="1" stop-color="#F2EAC9"/>
</linearGradient>
<linearGradient id="paint18_linear" x1="230.323" y1="150.58" x2="248.998" y2="150.58" gradientUnits="userSpaceOnUse">
<stop stop-color="#ECC4D7"/>
<stop offset="0.42" stop-color="#EFD4D1"/>
<stop offset="1" stop-color="#F2EAC9"/>
</linearGradient>
<linearGradient id="paint19_linear" x1="354.689" y1="142.221" x2="266.241" y2="201.043" gradientUnits="userSpaceOnUse">
<stop stop-color="#362958" stop-opacity="0.501"/>
<stop offset="1" stop-color="#34313D" stop-opacity="0"/>
</linearGradient>
<linearGradient id="paint20_linear" x1="217.622" y1="34.1924" x2="216.897" y2="33.9241" gradientUnits="userSpaceOnUse">
<stop/>
<stop offset="0.99" stop-opacity="0"/>
</linearGradient>
</defs>
</svg>
